PathFileType	3	(X/Y/Z)	E:\ViconData\BIOM9541 2025\Week 7\Wed1100\Hanif deep squat 5 Squat 01.trc
DataRate	CameraRate	NumFrames	NumMarkers	Units	OrigDataRate	OrigDataStartFrame	OrigNumFrames
200.0	200.0	8	19	mm	200.0	637	1698	
Frame#	Time	C7			CLAV			RBAK			LASI			RASI			LPSI			RPSI			LTHI			LKNE			LTIB			LANK			LHEE			LTOE			RTHI			RKNE			RTIB			RANK			RHEE			RTOE			
		X1	Y1	Z1	X2	Y2	Z2	X3	Y3	Z3	X4	Y4	Z4	X5	Y5	Z5	X6	Y6	Z6	X7	Y7	Z7	X8	Y8	Z8	X9	Y9	Z9	X10	Y10	Z10	X11	Y11	Z11	X12	Y12	Z12	X13	Y13	Z13	X14	Y14	Z14	X15	Y15	Z15	X16	Y16	Z16	X17	Y17	Z17	X18	Y18	Z18	X19	Y19	Z19	
637	3.18	299.43436	1305.1987	-1215.8274	153.2926	1232.9951	-1205.6647	317.50693	1223.9659	-1362.1678	206.40544	866.08533	-1083.2001	201.0675	874.1468	-1342.4327	373.4044	929.6946	-1168.4758	373.2706	926.5342	-1241.9604	210.46524	560.23254	-976.32458	202.19859	418.34946	-971.50122	259.64163	215.81902	-955.76501	299.16763	64.871132	-976.64648	320.65399	50.924736	-1036.9689	158.04401	38.423256	-946.87408	251.64557	726.07458	-1413.8768	220.87692	416.12421	-1445.7797	243.95201	328.40424	-1458.6556	299.13809	73.399193	-1430.181	319.43839	50.51128	-1362.756	162.64114	40.029041	-1467.7433	
638	3.185	299.5322	1303.4939	-1215.875	153.47374	1231.142	-1205.889	317.64261	1222.4097	-1362.2134	207.5041	864.50647	-1083.4325	202.0337	872.4503	-1342.5322	374.419	927.9513	-1168.6506	374.765	924.3675	-1242.8961	209.16963	559.89642	-975.07025	199.83928	418.08139	-969.79572	258.37546	215.53732	-954.90466	298.83209	64.961319	-976.34308	320.5325	50.996838	-1036.8049	157.92114	38.413483	-946.84912	251.9252	725.40143	-1414.6086	218.30142	415.64633	-1447.5881	241.42677	327.97955	-1459.9248	298.76398	73.452278	-1430.4174	319.34766	50.615658	-1362.7887	162.58287	40.033249	-1467.7579	
639	3.19	299.63257	1301.6636	-1215.881	153.55537	1229.2323	-1206.1064	317.82974	1220.7224	-1362.2797	208.51527	862.68854	-1083.5985	202.9595	870.8187	-1342.6169	375.3928	926.1015	-1168.6923	375.2455	922.6978	-1242.306	207.89815	559.55103	-973.66248	197.51797	417.74698	-967.96625	257.13403	215.1196	-954.08771	298.48474	64.922775	-976.0979	320.45102	51.053799	-1036.626	157.87231	38.427254	-946.79395	252.16252	724.12677	-1414.8271	215.69135	415.29193	-1449.3978	238.91331	327.58493	-1461.2345	298.60626	73.577484	-1430.698	319.69897	50.696106	-1363.2549	162.52455	40.127163	-1467.7339	
640	3.195	299.74557	1299.7507	-1215.8972	153.87833	1227.0912	-1206.0532	318.04105	1218.9857	-1362.3088	209.48831	860.88556	-1083.6166	203.964	869.0383	-1342.7931	376.4089	924.1216	-1168.7037	376.6617	920.1918	-1243.0986	206.66432	559.01971	-972.23688	195.23798	417.23633	-966.19739	256.05765	214.83833	-953.24493	298.28131	64.855621	-975.90625	320.42072	51.152519	-1036.4514	157.90508	38.429565	-946.78125	252.38907	723.07727	-1415.3361	213.13512	414.84912	-1451.2002	236.48309	327.0719	-1462.5077	298.34198	73.642044	-1430.8198	319.59348	50.748749	-1363.2479	162.51959	40.179878	-1467.6993	
641	3.2	299.89575	1297.7408	-1215.8563	154.08611	1224.9762	-1206.2109	318.32559	1217.1407	-1362.4081	210.49136	859.00763	-1083.7382	204.8864	867.1016	-1342.8932	377.4592	921.9127	-1168.9126	377.2802	918.4746	-1242.527	205.5502	558.43207	-970.87854	192.86908	416.80969	-964.4455	254.9512	214.43935	-952.47113	298.18039	64.764534	-975.79712	320.38181	51.165806	-1036.3384	157.9863	38.445526	-946.83008	252.68236	721.79504	-1415.8232	210.60526	414.17111	-1452.9359	234.14626	326.5014	-1463.7859	298.16556	73.603813	-1430.9305	319.53674	50.689312	-1363.3243	162.52499	40.180347	-1467.7151	
642	3.205	300.09387	1295.5706	-1215.9502	154.29425	1222.731	-1206.2594	318.56042	1215.1194	-1362.3905	211.55579	856.98938	-1083.8436	205.9179	864.9086	-1342.9955	378.5907	919.6772	-1169.2465	378.436	916.1692	-1242.8463	204.50731	557.91321	-969.41846	190.61934	416.28934	-962.80475	253.84912	214.07222	-951.74634	298.15771	64.735649	-975.79089	320.3327	51.176422	-1036.2745	158.01295	38.46207	-946.87439	252.95892	720.44019	-1416.366	208.06569	413.31686	-1454.6566	231.90582	325.77481	-1464.9998	298.00974	73.472321	-1431.058	319.43536	50.658779	-1363.3689	162.54077	40.097298	-1467.6836	
643	3.21	300.22873	1293.3881	-1215.9552	154.54591	1220.3617	-1206.3715	318.87036	1213.0642	-1362.4399	212.66052	854.84802	-1084.0488	206.832	862.7728	-1343.149	379.6781	917.2617	-1169.5048	379.537	913.8675	-1243.0215	203.51807	557.05933	-968.11829	188.26976	415.67606	-960.96655	252.72942	213.65976	-950.95587	298.13058	64.758682	-975.77325	320.21948	51.173847	-1036.2117	158.02267	38.438538	-946.87036	253.20598	718.95148	-1416.9514	205.57004	412.6413	-1456.3516	229.7487	325.15399	-1466.3264	297.76456	73.431168	-1431.1356	319.34048	50.634041	-1363.4126	162.51366	40.123135	-1467.6935	
644	3.215	300.35431	1291.1178	-1215.8851	154.8315	1217.7051	-1206.1869	319.09979	1210.8032	-1362.4557	213.71452	852.54437	-1084.1194	207.776	860.4829	-1343.2292	380.757	914.7159	-1169.524	380.4826	911.0251	-1243.262	202.58803	556.13379	-966.79523	186.11111	414.93771	-959.29938	251.60564	213.1225	-950.23846	298.02231	64.773628	-975.73193	320.11612	51.264755	-1036.1605	157.99835	38.432617	-946.80341	253.43614	717.39111	-1417.5693	203.06033	411.89172	-1457.975	227.5977	324.46133	-1467.5746	297.53177	73.380394	-1431.2562	319.21127	50.623589	-1363.3451	162.48346	40.153603	-1467.6527	
